#define Untitled_width 7
#define Untitled_height 9
static unsigned char Untitled_bits[] = {
   0x00, 0x0c, 0x08, 0x14, 0x14, 0x1c, 0x36, 0x00, 0x00 };
