#define codepoint_65_width 10
#define codepoint_65_height 12
static char codepoint_65_bits[] = {
  0x00, 0x00, 0x00, 0x00, 0x00, 0x00, 0x30, 0x00, 0x20, 0x00, 0x08, 0x00, 
  0x78, 0x00, 0x40, 0x00, 0xC4, 0x00, 0x00, 0x00, 0x00, 0x00, 0x00, 0x00, 
  };
