#define codepoint_97_width 10
#define codepoint_97_height 12
static char codepoint_97_bits[] = {
  0x00, 0x00, 0x00, 0x00, 0x00, 0x00, 0x00, 0x00, 0x38, 0x00, 0x40, 0x00, 
  0x78, 0x00, 0x44, 0x00, 0x78, 0x00, 0x00, 0x00, 0x00, 0x00, 0x00, 0x00, 
  };
